<svg id="Group_120" data-name="Group 120" xmlns="http://www.w3.org/2000/svg" width="32" height="32" viewBox="0 0 32 32">
  <g id="Group_38" data-name="Group 38" transform="translate(0)">
    <path id="Path_28" data-name="Path 28" d="M204.674,108.09a.479.479,0,0,0-.479.479v6.869a.479.479,0,1,0,.959,0v-6.869A.479.479,0,0,0,204.674,108.09Z" transform="translate(-178.132 -95.283)"/>
    <path id="Path_29" data-name="Path 29" d="M186.767,62.923a6.871,6.871,0,0,0-1.2-1.617.479.479,0,1,0-.678.678,5.917,5.917,0,0,1,1.035,1.391.479.479,0,1,0,.845-.452Z" transform="translate(-161.069 -54.216)"/>
    <path id="Path_30" data-name="Path 30" d="M73.446,27.045l-1.552-4.182v-10.2c0-4.52-4.165-8.482-10.206-9.79C61.6,1.257,59.72,0,57.473,0s-4.125,1.257-4.215,2.878c-6.041,1.306-10.206,5.268-10.206,9.79v10.2L41.5,27.045c-.132.355.246.7.763.7h8.477C51.131,30.138,54,32,57.473,32s6.341-1.862,6.734-4.252h8.477C73.2,27.748,73.578,27.4,73.446,27.045ZM57.473,1.12A2.6,2.6,0,0,1,60.056,2.6a20.764,20.764,0,0,0-2.575-.164h-.017A20.955,20.955,0,0,0,54.89,2.6,2.6,2.6,0,0,1,57.473,1.12ZM44.63,12.668c0-4.162,3.963-7.793,9.636-8.828a18.118,18.118,0,0,1,6.414,0h0c5.673,1.037,9.635,4.667,9.635,8.828v9.707H44.63ZM57.473,30.88c-2.6,0-4.762-1.361-5.143-3.132H62.616C62.234,29.519,60.073,30.88,57.473,30.88ZM43.287,26.628,44.449,23.5H70.5l1.163,3.132Z" transform="translate(-41.473)"/>
  </g>
</svg>
