<svg xmlns="http://www.w3.org/2000/svg" width="32" height="32" viewBox="0 0 32 32">
  <g id="Group_121" data-name="Group 121" transform="translate(-465 -295.944)">
    <g id="Group_118" data-name="Group 118" transform="translate(465 295.944)">
      <path id="Path_24" data-name="Path 24" d="M25.722,67.483a.594.594,0,0,1-.419-.18l-6.486-6.43H4.448C2,60.874,0,58.527,0,55.643V40.714c0-2.884,2-5.231,4.448-5.231h23.1C30,35.483,32,37.829,32,40.714V55.643c0,2.884-2,5.231-4.448,5.231h-1.18v5.846a.782.782,0,0,1-.376.692A.568.568,0,0,1,25.722,67.483ZM4.448,37.01a3.464,3.464,0,0,0-3.149,3.7V55.643a3.464,3.464,0,0,0,3.149,3.7H19.055a.6.6,0,0,1,.419.18l5.6,5.551V60.11a.714.714,0,0,1,.649-.764h1.83a3.464,3.464,0,0,0,3.149-3.7V40.714a3.464,3.464,0,0,0-3.149-3.7Z" transform="translate(0 -35.483)"/>
    </g>
    <g id="Group_119" data-name="Group 119" transform="translate(467.626 304.038)">
      <g id="Group_34" data-name="Group 34">
        <path id="Path_25" data-name="Path 25" d="M100.853,128.571H75.67c-.432,0-.782-.247-.782-.551s.35-.551.782-.551h25.183c.432,0,.782.247.782.551S101.285,128.571,100.853,128.571Z" transform="translate(-74.888 -127.469)"/>
      </g>
      <g id="Group_35" data-name="Group 35" transform="translate(0 3.528)">
        <path id="Path_26" data-name="Path 26" d="M100.853,192.605H75.67c-.432,0-.782-.247-.782-.551s.35-.551.782-.551h25.183c.432,0,.782.247.782.551S101.285,192.605,100.853,192.605Z" transform="translate(-74.888 -191.503)"/>
      </g>
      <g id="Group_36" data-name="Group 36" transform="translate(0 7.057)">
        <path id="Path_27" data-name="Path 27" d="M100.853,256.64H75.67c-.432,0-.782-.247-.782-.551s.35-.551.782-.551h25.183c.432,0,.782.247.782.551S101.285,256.64,100.853,256.64Z" transform="translate(-74.888 -255.538)"/>
      </g>
    </g>
  </g>
</svg>
