<svg xmlns="http://www.w3.org/2000/svg" width="31.67" height="32" viewBox="0 0 31.67 32">
  <g id="Group_1" data-name="Group 1" transform="translate(951.174 701.113)">
    <g id="Group_26" data-name="Group 26" transform="translate(-937.019 -699.59)">
      <g id="Group_25" data-name="Group 25">
        <path id="Path_19" data-name="Path 19" d="M176.825,36.948V43.26h9.795V36.948Zm9.142,5.659h-8.489V37.6h8.489Z" transform="translate(-176.825 -36.948)"/>
      </g>
    </g>
    <g id="Group_28" data-name="Group 28" transform="translate(-927.682 -675.769)">
      <g id="Group_27" data-name="Group 27">
        <rect id="Rectangle_15" data-name="Rectangle 15" width="2.177" height="0.653"/>
      </g>
    </g>
    <g id="Group_30" data-name="Group 30" transform="translate(-930.147 -671.943)">
      <g id="Group_29" data-name="Group 29">
        <rect id="Rectangle_16" data-name="Rectangle 16" width="4.353" height="0.653"/>
      </g>
    </g>
    <g id="Group_32" data-name="Group 32" transform="translate(-951.174 -701.113)">
      <g id="Group_31" data-name="Group 31">
        <path id="Path_20" data-name="Path 20" d="M31.01,5.278V1.155A1.156,1.156,0,0,0,29.855,0H4.948V1.979H2.639V6.268H4.948V7.918H2.969v4.289H4.948v1.649H2.969v4.289H4.948v1.649H2.969v4.289H4.948v1.65H2.969v4.289H4.948V32H29.855a1.156,1.156,0,0,0,1.155-1.155v-12.7h3.3V5.278Zm-27.381,0V2.969H8.082a.167.167,0,0,1,.165.165V5.113a.167.167,0,0,1-.165.165H3.629Zm.33,5.938V8.907H8.082a.167.167,0,0,1,.165.165v1.979a.167.167,0,0,1-.165.165Zm0,5.938V14.845H8.082a.167.167,0,0,1,.165.165V16.99a.167.167,0,0,1-.165.165H3.959Zm0,5.938V20.784H8.082a.167.167,0,0,1,.165.165v1.979a.167.167,0,0,1-.165.165H3.959Zm0,5.938V26.722H8.082a.167.167,0,0,1,.165.165v1.979a.167.167,0,0,1-.165.165ZM30.02,30.845a.167.167,0,0,1-.165.165H5.938v-.99H8.082a1.156,1.156,0,0,0,1.155-1.155V26.887a1.156,1.156,0,0,0-1.155-1.155H5.938V24.082H8.082a1.156,1.156,0,0,0,1.155-1.155V20.948a1.156,1.156,0,0,0-1.155-1.155H5.938V18.144H8.082A1.156,1.156,0,0,0,9.237,16.99V15.01a1.156,1.156,0,0,0-1.155-1.155H5.938V12.206H8.082a1.156,1.156,0,0,0,1.155-1.155V9.072A1.156,1.156,0,0,0,8.082,7.918H5.938V6.268H8.082A1.156,1.156,0,0,0,9.237,5.113V3.134A1.156,1.156,0,0,0,8.082,1.979H5.938V.99h4.948V26.227h.99V.99H29.855a.167.167,0,0,1,.165.165V30.845Zm3.3-13.691H31.01V14.186h2.309Zm0-3.959H31.01V10.227h2.309Zm0-3.959H31.01V6.268h2.309Z" transform="translate(-2.639)"/>
      </g>
    </g>
    <g id="Group_115" data-name="Group 115" transform="translate(-951.174 -701.113)">
      <g id="Group_31-2" data-name="Group 31">
        <path id="Path_20-2" data-name="Path 20" d="M31.01,5.278V1.155A1.156,1.156,0,0,0,29.855,0H4.948V1.979H2.639V6.268H4.948V7.918H2.969v4.289H4.948v1.649H2.969v4.289H4.948v1.649H2.969v4.289H4.948v1.65H2.969v4.289H4.948V32H29.855a1.156,1.156,0,0,0,1.155-1.155v-12.7h3.3V5.278Zm-27.381,0V2.969H8.082a.167.167,0,0,1,.165.165V5.113a.167.167,0,0,1-.165.165H3.629Zm.33,5.938V8.907H8.082a.167.167,0,0,1,.165.165v1.979a.167.167,0,0,1-.165.165Zm0,5.938V14.845H8.082a.167.167,0,0,1,.165.165V16.99a.167.167,0,0,1-.165.165H3.959Zm0,5.938V20.784H8.082a.167.167,0,0,1,.165.165v1.979a.167.167,0,0,1-.165.165H3.959Zm0,5.938V26.722H8.082a.167.167,0,0,1,.165.165v1.979a.167.167,0,0,1-.165.165ZM30.02,30.845a.167.167,0,0,1-.165.165H5.938v-.99H8.082a1.156,1.156,0,0,0,1.155-1.155V26.887a1.156,1.156,0,0,0-1.155-1.155H5.938V24.082H8.082a1.156,1.156,0,0,0,1.155-1.155V20.948a1.156,1.156,0,0,0-1.155-1.155H5.938V18.144H8.082A1.156,1.156,0,0,0,9.237,16.99V15.01a1.156,1.156,0,0,0-1.155-1.155H5.938V12.206H8.082a1.156,1.156,0,0,0,1.155-1.155V9.072A1.156,1.156,0,0,0,8.082,7.918H5.938V6.268H8.082A1.156,1.156,0,0,0,9.237,5.113V3.134A1.156,1.156,0,0,0,8.082,1.979H5.938V.99h4.948V26.227h.99V.99H29.855a.167.167,0,0,1,.165.165V30.845Zm3.3-13.691H31.01V14.186h2.309Zm0-3.959H31.01V10.227h2.309Zm0-3.959H31.01V6.268h2.309Z" transform="translate(-2.639)"/>
      </g>
    </g>
  </g>
</svg>
