<svg xmlns="http://www.w3.org/2000/svg" width="32" height="32" viewBox="0 0 32 32">
  <g id="Group_116" data-name="Group 116" transform="translate(951.174 701.113)">
    <g id="Group_26" data-name="Group 26" transform="translate(-936.806 -699.59)">
      <g id="Group_25" data-name="Group 25">
        <path id="Path_19" data-name="Path 19" d="M176.825,36.948V43.26h9.795V36.948Zm9.142,5.659h-8.489V37.6h8.489Z" transform="translate(-176.825 -36.948)"/>
      </g>
    </g>
    <g id="Group_28" data-name="Group 28" transform="translate(-927.419 -675.769)">
      <g id="Group_27" data-name="Group 27">
        <rect id="Rectangle_15" data-name="Rectangle 15" width="2.177" height="0.653"/>
      </g>
    </g>
    <g id="Group_30" data-name="Group 30" transform="translate(-929.893 -671.943)">
      <g id="Group_29" data-name="Group 29">
        <rect id="Rectangle_16" data-name="Rectangle 16" width="4.353" height="0.653"/>
      </g>
    </g>
    <g id="Group_32" data-name="Group 32" transform="translate(-951.174 -701.113)">
      <g id="Group_31" data-name="Group 31">
        <path id="Path_20" data-name="Path 20" d="M31.306,5.278V1.155A1.162,1.162,0,0,0,30.139,0H4.972V1.979H2.639V6.268H4.972v1.65h-2v4.289h2v1.649h-2v4.289h2v1.649h-2v4.289h2v1.65h-2v4.289h2V32H30.139a1.162,1.162,0,0,0,1.167-1.155v-12.7h3.333V5.278Zm-27.667,0V2.969h4.5a.168.168,0,0,1,.167.165V5.113a.168.168,0,0,1-.167.165h-4.5Zm.333,5.938V8.907H8.139a.168.168,0,0,1,.167.165v1.979a.168.168,0,0,1-.167.165Zm0,5.938V14.845H8.139a.168.168,0,0,1,.167.165V16.99a.168.168,0,0,1-.167.165H3.972Zm0,5.938V20.784H8.139a.168.168,0,0,1,.167.165v1.979a.168.168,0,0,1-.167.165H3.972Zm0,5.938V26.722H8.139a.168.168,0,0,1,.167.165v1.979a.168.168,0,0,1-.167.165Zm26.333,1.814a.168.168,0,0,1-.167.165H5.972v-.99H8.139a1.162,1.162,0,0,0,1.167-1.155V26.887a1.162,1.162,0,0,0-1.167-1.155H5.972V24.083H8.139a1.162,1.162,0,0,0,1.167-1.155V20.949a1.162,1.162,0,0,0-1.167-1.155H5.972V18.144H8.139A1.162,1.162,0,0,0,9.306,16.99V15.01a1.162,1.162,0,0,0-1.167-1.155H5.972V12.206H8.139a1.162,1.162,0,0,0,1.167-1.155V9.072A1.162,1.162,0,0,0,8.139,7.918H5.972V6.268H8.139A1.162,1.162,0,0,0,9.306,5.114V3.134A1.162,1.162,0,0,0,8.139,1.98H5.972V.99h5V26.227h1V.99H30.139a.168.168,0,0,1,.167.165V30.845Zm3.333-13.691H31.306V14.186h2.333Zm0-3.959H31.306V10.227h2.333Zm0-3.959H31.306V6.268h2.333Z" transform="translate(-2.639)"/>
      </g>
    </g>
    <g id="Group_115" data-name="Group 115" transform="translate(-951.174 -701.113)">
      <g id="Group_31-2" data-name="Group 31">
        <path id="Path_20-2" data-name="Path 20" d="M31.306,5.278V1.155A1.162,1.162,0,0,0,30.139,0H4.972V1.979H2.639V6.268H4.972v1.65h-2v4.289h2v1.649h-2v4.289h2v1.649h-2v4.289h2v1.65h-2v4.289h2V32H30.139a1.162,1.162,0,0,0,1.167-1.155v-12.7h3.333V5.278Zm-27.667,0V2.969h4.5a.168.168,0,0,1,.167.165V5.113a.168.168,0,0,1-.167.165h-4.5Zm.333,5.938V8.907H8.139a.168.168,0,0,1,.167.165v1.979a.168.168,0,0,1-.167.165Zm0,5.938V14.845H8.139a.168.168,0,0,1,.167.165V16.99a.168.168,0,0,1-.167.165H3.972Zm0,5.938V20.784H8.139a.168.168,0,0,1,.167.165v1.979a.168.168,0,0,1-.167.165H3.972Zm0,5.938V26.722H8.139a.168.168,0,0,1,.167.165v1.979a.168.168,0,0,1-.167.165Zm26.333,1.814a.168.168,0,0,1-.167.165H5.972v-.99H8.139a1.162,1.162,0,0,0,1.167-1.155V26.887a1.162,1.162,0,0,0-1.167-1.155H5.972V24.083H8.139a1.162,1.162,0,0,0,1.167-1.155V20.949a1.162,1.162,0,0,0-1.167-1.155H5.972V18.144H8.139A1.162,1.162,0,0,0,9.306,16.99V15.01a1.162,1.162,0,0,0-1.167-1.155H5.972V12.206H8.139a1.162,1.162,0,0,0,1.167-1.155V9.072A1.162,1.162,0,0,0,8.139,7.918H5.972V6.268H8.139A1.162,1.162,0,0,0,9.306,5.114V3.134A1.162,1.162,0,0,0,8.139,1.98H5.972V.99h5V26.227h1V.99H30.139a.168.168,0,0,1,.167.165V30.845Zm3.333-13.691H31.306V14.186h2.333Zm0-3.959H31.306V10.227h2.333Zm0-3.959H31.306V6.268h2.333Z" transform="translate(-2.639)"/>
      </g>
    </g>
  </g>
</svg>
