<svg xmlns="http://www.w3.org/2000/svg" width="32" height="32" viewBox="0 0 32 32">
  <g id="Group_117" data-name="Group 117" transform="translate(-412 -288.774)">
    <path id="Path_21" data-name="Path 21" d="M44.8,42.855h-.411v-.969a4.2,4.2,0,0,0-1.982-3.548,4.2,4.2,0,0,0,1.982-3.548v-.969H44.8a.411.411,0,1,0,0-.821H37.411a.411.411,0,1,0,0,.821h.411v.969A4.2,4.2,0,0,0,39.8,38.338a4.2,4.2,0,0,0-1.982,3.548v.969h-.411a.411.411,0,0,0,0,.821H44.8a.411.411,0,0,0,0-.821ZM38.642,34.79v-.969H43.57v.969a3.421,3.421,0,0,1-2.134,3.137h-.659A3.421,3.421,0,0,1,38.642,34.79Zm0,7.1a3.421,3.421,0,0,1,2.134-3.137h.659a3.42,3.42,0,0,1,2.134,3.137v.969H38.642Z" transform="translate(398.788 277.098)"/>
    <path id="Path_22" data-name="Path 22" d="M36.6,25.517V21H9V32.908H23.528V25.517H36.6Zm-19.613-3.7h5.085V24.7H16.99Zm-6.538,0h5.085V24.7H10.453Zm0,3.7h5.085v2.874H10.453Zm5.085,6.57H10.453V29.212h5.085Zm6.538,0H16.99V29.212h5.085Zm0-3.7H16.99V25.517h5.085Zm6.538-3.7H23.528V21.821h5.085Zm1.453-2.874H35.15V24.7H30.066Z" transform="translate(405.874 285.003)"/>
    <path id="Path_23" data-name="Path 23" d="M20.343,30.085H3.183V8.752h28.4v6.564a.594.594,0,0,0,1.183,0V2.735a.57.57,0,0,0-.592-.547H29.218V.547A.57.57,0,0,0,28.626,0H24.484a.57.57,0,0,0-.592.547V2.188H10.875V.547A.57.57,0,0,0,10.284,0H6.142A.57.57,0,0,0,5.55.547V2.188H2.592A.57.57,0,0,0,2,2.735v27.9a.57.57,0,0,0,.592.547H20.343a.549.549,0,1,0,0-1.094ZM25.076,1.094h2.958V4.376H25.076V1.094Zm-18.343,0H9.692V4.376H6.734V1.094ZM3.183,3.282H5.55V4.923a.57.57,0,0,0,.592.547h4.142a.57.57,0,0,0,.592-.547V3.282H23.893V4.923a.57.57,0,0,0,.592.547h4.142a.57.57,0,0,0,.592-.547V3.282h2.367V7.658H3.183Z" transform="translate(410 288.774)"/>
    <path id="Path_24" data-name="Path 24" d="M44.8,42.855h-.411v-.969a4.2,4.2,0,0,0-1.982-3.548,4.2,4.2,0,0,0,1.982-3.548v-.969H44.8a.411.411,0,1,0,0-.821H37.411a.411.411,0,1,0,0,.821h.411v.969A4.2,4.2,0,0,0,39.8,38.338a4.2,4.2,0,0,0-1.982,3.548v.969h-.411a.411.411,0,0,0,0,.821H44.8a.411.411,0,0,0,0-.821ZM38.642,34.79v-.969H43.57v.969a3.421,3.421,0,0,1-2.134,3.137h-.659A3.421,3.421,0,0,1,38.642,34.79Zm0,7.1a3.421,3.421,0,0,1,2.134-3.137h.659a3.42,3.42,0,0,1,2.134,3.137v.969H38.642Z" transform="translate(398.788 277.098)"/>
    <path id="Path_25" data-name="Path 25" d="M36.6,25.517V21H9V32.908H23.528V25.517H36.6Zm-19.613-3.7h5.085V24.7H16.99Zm-6.538,0h5.085V24.7H10.453Zm0,3.7h5.085v2.874H10.453Zm5.085,6.57H10.453V29.212h5.085Zm6.538,0H16.99V29.212h5.085Zm0-3.7H16.99V25.517h5.085Zm6.538-3.7H23.528V21.821h5.085Zm1.453-2.874H35.15V24.7H30.066Z" transform="translate(405.874 285.003)"/>
    <path id="Path_26" data-name="Path 26" d="M20.343,30.085H3.183V8.752h28.4v6.564a.594.594,0,0,0,1.183,0V2.735a.57.57,0,0,0-.592-.547H29.218V.547A.57.57,0,0,0,28.626,0H24.484a.57.57,0,0,0-.592.547V2.188H10.875V.547A.57.57,0,0,0,10.284,0H6.142A.57.57,0,0,0,5.55.547V2.188H2.592A.57.57,0,0,0,2,2.735v27.9a.57.57,0,0,0,.592.547H20.343a.549.549,0,1,0,0-1.094ZM25.076,1.094h2.958V4.376H25.076V1.094Zm-18.343,0H9.692V4.376H6.734V1.094ZM3.183,3.282H5.55V4.923a.57.57,0,0,0,.592.547h4.142a.57.57,0,0,0,.592-.547V3.282H23.893V4.923a.57.57,0,0,0,.592.547h4.142a.57.57,0,0,0,.592-.547V3.282h2.367V7.658H3.183Z" transform="translate(410 288.774)"/>
  </g>
</svg>
